<?xml version="1.0" encoding="UTF-8" standalone="no"?>
<!-- Created with Inkscape (http://www.inkscape.org/) -->

<svg
   width="162.35265mm"
   height="162.35265mm"
   viewBox="0 0 162.35265 162.35265"
   version="1.1"
   id="svg1"
   inkscape:version="1.3.2 (091e20e, 2023-11-25, custom)"
   sodipodi:docname="paleta2.svg"
   xml:space="preserve"
   xmlns:inkscape="http://www.inkscape.org/namespaces/inkscape"
   xmlns:sodipodi="http://sodipodi.sourceforge.net/DTD/sodipodi-0.dtd"
   xmlns="http://www.w3.org/2000/svg"
   xmlns:svg="http://www.w3.org/2000/svg"><sodipodi:namedview
     id="namedview1"
     pagecolor="#ffffff"
     bordercolor="#000000"
     borderopacity="0.74901961"
     inkscape:showpageshadow="2"
     inkscape:pageopacity="0.0"
     inkscape:pagecheckerboard="0"
     inkscape:deskcolor="#d1d1d1"
     inkscape:document-units="px"
     inkscape:clip-to-page="false"
     inkscape:zoom="0.76702441"
     inkscape:cx="316.15682"
     inkscape:cy="486.94669"
     inkscape:window-width="1858"
     inkscape:window-height="1057"
     inkscape:window-x="-8"
     inkscape:window-y="-8"
     inkscape:window-maximized="1"
     inkscape:current-layer="layer2" /><defs
     id="defs1"><clipPath
       clipPathUnits="userSpaceOnUse"
       id="clipPath4"><g
         inkscape:label="Clip"
         id="use4" /></clipPath></defs><g
     inkscape:label="Capa 1"
     inkscape:groupmode="layer"
     id="layer1"
     transform="translate(-21.50183,-19.105729)"><path
       id="path1"
       style="fill:#d0d0d0;stroke-width:0.373534;fill-opacity:1"
       d="M 114.07967 -87.047664 A 98.557289 58.869793 90 0 0 84.644627 -1.6942993 A 98.557289 58.869793 90 0 0 143.51435 96.863069 A 98.557289 58.869793 90 0 0 202.38407 -1.6942993 A 98.557289 58.869793 90 0 0 143.51435 -100.25167 A 98.557289 58.869793 90 0 0 114.07967 -87.047664 z M 128.45407 32.21114 A 30.427086 14.816668 90 0 1 134.12447 29.895186 A 30.427086 14.816668 90 0 1 148.94101 60.321945 A 30.427086 14.816668 90 0 1 134.12447 90.749434 A 30.427086 14.816668 90 0 1 119.30792 60.321945 A 30.427086 14.816668 90 0 1 128.45407 32.21114 z "
       transform="rotate(45)" /></g><g
     inkscape:groupmode="layer"
     id="layer2"
     inkscape:label="Capa 2"><circle
       style="opacity:1;fill:#e04f5f;fill-opacity:1;stroke-width:0.127645"
       id="path7"
       cx="137.58334"
       cy="26.458336"
       r="15.875001" /><circle
       style="fill:#32bea6;fill-opacity:1;stroke-width:0.127645"
       id="path7-9"
       cx="138.90627"
       cy="63.500004"
       r="15.875001" /><circle
       style="fill:#25b6d2;fill-opacity:1;stroke-width:0.127645"
       id="path7-9-2"
       cx="119.06251"
       cy="97.895844"
       r="15.875001" /><circle
       style="fill:#f2b851;fill-opacity:1;stroke-width:0.127645"
       id="path7-9-2-5"
       cx="84.666672"
       cy="129.64584"
       r="15.875001" /></g></svg>
